{"title":"Penthouse.Krazy.Fuckerz.XXX.720p.WEBRiP.WMV-TBP","uid":11729357,"size":6107010710,"categoryP":"porn","categoryS":"movies","magnet":"?xt=urn:btih:1a44b34e3511f809beb069331f0f72cd7e7165c8&amp;dn=Penthouse.Krazy.Fuckerz.XXX.720p.WEBRiP.WMV-TBP&amp;tr=udp%3A%2F%2Ftracker.openbittorrent.com%3A80&amp;tr=udp%3A%2F%2Fopen.demonii.com%3A1337&amp;tr=udp%3A%2F%2Ftracker.coppersurfer.tk%3A6969&amp;tr=udp%3A%2F%2Fexodus.desync.com%3A6969","seeders":0,"leechers":1,"uploader":"sceneline","files":65,"time":1425227960,"description":" &lt;a href=&quot;https://www.scenetime&quot; rel=&quot;nofollow&quot; target=&quot;_NEW&quot;&gt;https://www.scenetime&lt;/a&gt; dot com\n\nSign up is OPEN - for time being. Come and have fun.\n\nplease seed back as long as possible.\n\nfor info read NFO file\n\n================== NFO====================\n                  THE.BEST.PORN.GIVES \n\n\nPenthouse.Krazy.Fuckerz.XXX.720p.WEBRiP.WMV-TBP \n\nWEBSITE     : http://www.data18.com/search/?k=krazy+fuckerz&amp;b=1&amp;t=0&amp;ref=4\nTYPE        : WMV \nSIZE        : 61 x 100MB \n\nContent:\nPlease note: These results are based on original title from updates. Provided by site owner.\nKrazy Fuckerz 6: For The Sake Of Something\nKrazy Fuckerz 5: Keep It Simple\nKrazy Fuckerz 4: It's Easier Than You Think\nKrazy Fuckerz 3: Sex With A Space Helmet\nKrazy Fuckerz 2: Confidence\nKrazy Fuckerz 1: Horned Helmet Hottie\n\nGeneral\nComplete name                            : tbp.pkf.wmv\nFormat                                   : Windows Media\nFile size                                : 5.61 GiB\nDuration                                 : 1h 39mn\nOverall bit rate                         : 8 105 Kbps\nMaximum Overall bit rate                 : 32.0 Kbps\nEncoded date                             : UTC 1970-01-01 00:00:00.000\nWM/EncodingSettings                      : Lavf56.4.101\n\nVideo\nID                                       : 1\nFormat                                   : WMV2\nCodec ID                                 : WMV2\nCodec ID/Info                            : Windows Media Video 8\nDescription of the codec                 : wmv2\nDuration                                 : 1h 39mn\nBit rate                                 : 7 744 Kbps\nWidth                                    : 1 280 pixels\nHeight                                   : 720 pixels\nDisplay aspect ratio                     : 16:9\nFrame rate                               : 29.970 fps\nBit depth                                : 8 bits\nBits/(Pixel*Frame)                       : 0.280\nStream size                              : 5.36 GiB (96%)\n\nAudio\nID                                       : 2\nFormat                                   : WMA\nFormat version                           : Version 2\nCodec ID                                 : 161\nCodec ID/Info                            : Windows Media Audio\nDescription of the codec                 : Windows Media Audio V8\nDuration                                 : 1h 39mn\nBit rate                                 : 32.0 Kbps\nChannel(s)                               : 1 channel\nSampling rate                            : 48.0 KHz\nBit depth                                : 16 bits\nStream size                              : 22.7 MiB (0%)\n\n\nREVIEW-URL  :  \n\n  Greetz to our good friends in GUSH \n   And the others which make this fun","torrent":{"xt":"urn:btih:1a44b34e3511f809beb069331f0f72cd7e7165c8","amp;dn":"Penthouse.Krazy.Fuckerz.XXX.720p.WEBRiP.WMV-TBP","amp;tr":["udp%3A%2F%2Ftracker.openbittorrent.com%3A80","udp%3A%2F%2Fopen.demonii.com%3A1337","udp%3A%2F%2Ftracker.coppersurfer.tk%3A6969","udp%3A%2F%2Fexodus.desync.com%3A6969"],"infoHash":"1a44b34e3511f809beb069331f0f72cd7e7165c8","infoHashBuffer":{"type":"Buffer","data":[26,68,179,78,53,17,248,9,190,176,105,51,31,15,114,205,126,113,101,200]},"announce":[],"urlList":[]}}